<?xml version="1.0" encoding="utf-8"?>
<!-- Generator: Adobe Illustrator 22.1.0, SVG Export Plug-In . SVG Version: 6.00 Build 0)  -->
<svg version="1.1" xmlns="http://www.w3.org/2000/svg" xmlns:xlink="http://www.w3.org/1999/xlink" x="0px" y="0px"
	 viewBox="0 0 54 52.6" style="enable-background:new 0 0 54 52.6;" xml:space="preserve">
<style type="text/css">
	.st0{display:none;}
	.st1{display:inline;fill:#F42F2F;}
	.st2{fill:#FFFFFF;}
	.st3{font-family:'Montserrat-Light';}
	.st4{font-size:3.5781px;}
	.st5{fill:none;stroke:#FFFFFF;stroke-miterlimit:10;}
</style>
<g id="Camada_2" class="st0">
	<rect x="-40" y="-43.6" class="st1" width="127.9" height="137.6"/>
</g>
<g id="Camada_1">
	<g>
		<ellipse cx="27.2" cy="27" rx="27.2" ry="26.3"/>
		<text transform="matrix(1.0329 0 0 1 23.1885 48.7588)" class="st2 st3 st4">studio</text>
		<ellipse class="st5" cx="28.2" cy="25.8" rx="14.9" ry="14.4"/>
		<g>
			<path class="st2" d="M24.6,29.5l-0.4-0.2c-1.3,1.9-3.1,2.9-5.4,2.9c-1.6,0-2.9-0.4-3.8-1.3c-0.9-0.9-1.4-2-1.4-3.5
				c0-1.4,0.3-2.6,0.8-3.6c0.6-1.1,1.3-1.9,2.3-2.5c1-0.6,2.1-0.9,3.4-0.9c2.3,0,4.5,1.4,5.5,3.4l1.1-7.4c-1.7-0.9-3.8-1.1-6.1-1.1
				c-2.6,0-4.9,0.5-6.9,1.6c-2.1,1.1-3.7,2.6-4.8,4.5c-1.1,1.9-1.7,4-1.7,6.4c0,1.9,0.5,3.6,1.4,5c0.9,1.4,2.2,2.6,3.9,3.4
				c1.7,0.8,3.7,1.2,6,1.2c1.8,0,3.4-0.3,4.9-0.8c0.4-0.2,0.8-0.3,1.2-0.5c1.8-0.9,3.3-2.2,4.4-3.8L24.6,29.5z"/>
		</g>
		<g>
			<path class="st2" d="M46,25.7c0,0.8,0,1.7-0.2,2.5l-2,11.9l-5.9,0.1l1.9-11.5c0.1-0.5,0.1-0.9,0.1-1.5c0-1.1-0.3-2-0.9-2.5
				c-0.6-0.6-1.5-0.8-2.6-0.8c-1.5,0-2.8,0.5-3.7,1.5c-1,0.9-1.6,2.3-1.9,4.2l-1.8,10.9l-5.8,4.6l1.2-8.7c0.4-0.2,0.8-0.3,1.1-0.6
				c1.7-0.9,3-2.2,4-3.9l-4.1-2.6L27.9,11l5.8-4.5L32.2,21c1.7-1.5,3.8-2.4,6.3-2.4c2.3-0.1,4.1,0.5,5.5,1.8
				C45.3,21.6,46,23.4,46,25.7z"/>
		</g>
	</g>
</g>
</svg>
