<?xml version="1.0" encoding="utf-8"?>
<!-- Generator: Adobe Illustrator 22.1.0, SVG Export Plug-In . SVG Version: 6.00 Build 0)  -->
<svg version="1.1" xmlns="http://www.w3.org/2000/svg" xmlns:xlink="http://www.w3.org/1999/xlink" x="0px" y="0px"
	 viewBox="0 0 127.9 137.7" style="enable-background:new 0 0 127.9 137.7;" xml:space="preserve">
<style type="text/css">
	.st0{display:none;}
	.st1{display:inline;fill:#F42F2F;}
	.st2{fill:#FFFFFF;}
	.st3{font-family:'Montserrat-Light';}
	.st4{font-size:11.3551px;}
	.st5{fill:none;stroke:#FFFFFF;stroke-miterlimit:10;}
</style>
<g id="Camada_2" class="st0">
	<rect x="0" y="0.1" class="st1" width="127.9" height="137.6"/>
</g>
<g id="Camada_1">
	<g>
		<text transform="matrix(1 0 0 1 53.4543 135.9575)" class="st2 st3 st4">studio</text>
		<circle class="st5" cx="68.8" cy="63" r="45.7"/>
		<g>
			<path class="st2" d="M57.6,74.8l-1.1-0.7c-3.9,6.1-9.4,9.1-16.7,9.1c-5,0-8.8-1.4-11.6-4.1c-2.8-2.7-4.2-6.4-4.2-11
				c0-4.3,0.9-8.1,2.6-11.5c1.7-3.4,4.1-6,7.2-7.9c3.1-1.9,6.5-2.8,10.4-2.8c7.1,0,13.8,4.6,16.8,10.7l3.4-23.4
				c-5.3-3-11.6-3.6-18.9-3.6c-7.9,0-15,1.7-21.3,5.2C17.9,38.2,13,42.9,9.5,48.9c-3.5,6-5.3,12.7-5.3,20.2c0,6.1,1.4,11.4,4.2,16
				c2.8,4.6,6.8,8.1,12,10.7c5.2,2.5,11.3,3.8,18.3,3.8c5.4,0,10.4-0.9,15.1-2.6c1.3-0.5,2.6-1,3.8-1.7c5.7-2.9,10.2-6.9,13.4-12
				L57.6,74.8z"/>
		</g>
		<g>
			<path class="st2" d="M123.7,62.8c0.1,2.7-0.2,5.4-0.6,8.1l-6.1,37.7l-18.2,0.4l5.9-36.5c0.3-1.4,0.4-3,0.4-4.7
				c-0.1-3.5-1-6.2-2.9-8c-1.8-1.8-4.5-2.7-8.1-2.6c-4.7,0.1-8.5,1.6-11.5,4.6c-3,3-5,7.4-5.9,13.2L71,109.7l-17.9,14.6l3.8-27.6
				c1.2-0.5,2.3-1.1,3.5-1.7c5.2-3,9.2-7.1,12.2-12.3l-12.6-8.1l8-58.5L85.8,1.8l-4.8,46c5.3-4.9,11.7-7.5,19.2-7.6
				c7-0.2,12.6,1.7,16.8,5.7C121.3,49.8,123.5,55.4,123.7,62.8z"/>
		</g>
	</g>
</g>
</svg>
